<svg width="24" height="24" viewBox="0 0 24 24" fill="none" xmlns="http://www.w3.org/2000/svg">
<g id="mostly_sunny copy">
<rect id="Rectangle" opacity="0.01" width="24" height="24" fill="#F1F1F2"/>
<g id="Group">
<g id="Group_2">
<circle id="Ellipse_1_1_" cx="12" cy="12" r="6" fill="url(#paint0_radial_0_70)"/>
<g id="Group_3">
<g id="Group_4">
<g id="Line_5_4_">
<path id="Path" d="M4.1 12.5249H2.475C2.225 12.5249 2 12.3144 2 12.0249C2 11.7354 2.225 11.5249 2.475 11.5249H4.1C4.375 11.5249 4.575 11.7617 4.575 12.0249C4.575 12.2881 4.375 12.5249 4.1 12.5249Z" fill="url(#paint1_radial_0_70)"/>
</g>
<g id="Line_6_4_">
<path id="Path_2" d="M21.5248 12.5249H19.8998C19.6248 12.5249 19.4248 12.2881 19.4248 12.0249C19.4248 11.7617 19.6498 11.5249 19.8998 11.5249H21.5248C21.7998 11.5249 21.9998 11.7617 21.9998 12.0249C21.9998 12.2881 21.7748 12.5249 21.5248 12.5249Z" fill="url(#paint2_radial_0_70)"/>
</g>
</g>
<g id="Group_5">
<g id="Line_5_3_">
<path id="Path_3" d="M5.27461 19.2C5.14961 19.2 5.02461 19.15 4.94961 19.05C4.77461 18.875 4.77461 18.575 4.94961 18.375L6.09961 17.225C6.27461 17.05 6.59961 17.05 6.77461 17.225C6.94961 17.4 6.94961 17.7 6.77461 17.9L5.62461 19.05C5.49961 19.175 5.39961 19.2 5.27461 19.2Z" fill="url(#paint3_radial_0_70)"/>
</g>
<g id="Line_6_3_">
<path id="Path_4" d="M17.5744 6.9002C17.4494 6.9002 17.3244 6.8502 17.2494 6.7502C17.0744 6.5752 17.0744 6.2752 17.2494 6.0752L18.3994 4.9252C18.5744 4.7502 18.8994 4.7502 19.0744 4.9252C19.2494 5.1002 19.2494 5.4002 19.0744 5.6002L17.9244 6.7502C17.8244 6.8502 17.6994 6.9002 17.5744 6.9002Z" fill="url(#paint4_radial_0_70)"/>
</g>
</g>
<g id="Group_6">
<g id="Line_5_2_">
<path id="Path_5" d="M12.0254 21.9998C11.7359 21.9998 11.5254 21.7748 11.5254 21.5248V19.8998C11.5254 19.6248 11.7622 19.4248 12.0254 19.4248C12.3149 19.4248 12.5254 19.6498 12.5254 19.8998V21.5248C12.5254 21.7748 12.3149 21.9998 12.0254 21.9998Z" fill="url(#paint5_radial_0_70)"/>
</g>
<g id="Line_6_2_">
<path id="Path_6" d="M12.0254 4.575C11.7359 4.575 11.5254 4.35 11.5254 4.1V2.475C11.5254 2.225 11.7359 2 12.0254 2C12.3149 2 12.5254 2.225 12.5254 2.475V4.1C12.5254 4.375 12.3149 4.575 12.0254 4.575Z" fill="url(#paint6_radial_0_70)"/>
</g>
</g>
<g id="Group_7">
<g id="Line_5_1_">
<path id="Path_7" d="M18.7244 19.2004C18.5994 19.2004 18.4744 19.1504 18.3994 19.0504L17.2494 17.9254C17.0744 17.7504 17.0744 17.4504 17.2494 17.2504C17.4244 17.0754 17.7494 17.0754 17.9244 17.2504L19.0744 18.4004C19.2494 18.5754 19.2494 18.8754 19.0744 19.0754C18.9744 19.1754 18.8494 19.2004 18.7244 19.2004Z" fill="url(#paint7_radial_0_70)"/>
</g>
<g id="Line_6_1_">
<path id="Path_8" d="M6.42461 6.9002C6.29961 6.9002 6.17461 6.8502 6.09961 6.7502L4.94961 5.6002C4.77461 5.4252 4.77461 5.1252 4.94961 4.9252C5.12461 4.7502 5.44961 4.7502 5.62461 4.9252L6.77461 6.0752C6.94961 6.2502 6.94961 6.5502 6.77461 6.7502C6.67461 6.8502 6.54961 6.9002 6.42461 6.9002Z" fill="url(#paint8_radial_0_70)"/>
</g>
</g>
</g>
</g>
<g id="Group_8">
<circle id="Oval" cx="15.5502" cy="13.4999" r="3.6" fill="url(#paint9_radial_0_70)"/>
<rect id="Rectangle_2" x="13" y="15" width="6.6" height="3" fill="url(#paint10_radial_0_70)"/>
<circle id="Oval_2" cx="19.6002" cy="15.5748" r="2.4" fill="url(#paint11_radial_0_70)"/>
<circle id="Oval_3" cx="13" cy="15" r="3" fill="url(#paint12_radial_0_70)"/>
</g>
</g>
</g>
<defs>
<radialGradient id="paint0_radial_0_70" cx="0" cy="0" r="1" gradientUnits="userSpaceOnUse" gradientTransform="translate(11.8837 17.9083) rotate(-90) scale(10.902)">
<stop stop-color="#FFA141"/>
<stop offset="0.1746" stop-color="#FFA141"/>
<stop offset="0.3575" stop-color="#FFA63B"/>
<stop offset="0.6011" stop-color="#FFB62A"/>
<stop offset="0.8778" stop-color="#FFD00F"/>
<stop offset="1" stop-color="#FFDD00"/>
</radialGradient>
<radialGradient id="paint1_radial_0_70" cx="0" cy="0" r="1" gradientUnits="userSpaceOnUse" gradientTransform="translate(11.8856 18.1948) rotate(-90) scale(11.3847 29.3156)">
<stop stop-color="#FFA141"/>
<stop offset="0.1746" stop-color="#FFA141"/>
<stop offset="0.3575" stop-color="#FFA63B"/>
<stop offset="0.6011" stop-color="#FFB62A"/>
<stop offset="0.8778" stop-color="#FFD00F"/>
<stop offset="1" stop-color="#FFDD00"/>
</radialGradient>
<radialGradient id="paint2_radial_0_70" cx="0" cy="0" r="1" gradientUnits="userSpaceOnUse" gradientTransform="translate(11.8837 18.1948) rotate(-90) scale(11.3847 29.3156)">
<stop stop-color="#FFA141"/>
<stop offset="0.1746" stop-color="#FFA141"/>
<stop offset="0.3575" stop-color="#FFA63B"/>
<stop offset="0.6011" stop-color="#FFB62A"/>
<stop offset="0.8778" stop-color="#FFD00F"/>
<stop offset="1" stop-color="#FFDD00"/>
</radialGradient>
<radialGradient id="paint3_radial_0_70" cx="0" cy="0" r="1" gradientUnits="userSpaceOnUse" gradientTransform="translate(11.8843 17.8614) scale(10.8155 10.9126)">
<stop stop-color="#FFA141"/>
<stop offset="0.1746" stop-color="#FFA141"/>
<stop offset="0.3575" stop-color="#FFA63B"/>
<stop offset="0.6011" stop-color="#FFB62A"/>
<stop offset="0.8778" stop-color="#FFD00F"/>
<stop offset="1" stop-color="#FFDD00"/>
</radialGradient>
<radialGradient id="paint4_radial_0_70" cx="0" cy="0" r="1" gradientUnits="userSpaceOnUse" gradientTransform="translate(11.8841 17.8616) scale(10.8155 10.9126)">
<stop stop-color="#FFA141"/>
<stop offset="0.1746" stop-color="#FFA141"/>
<stop offset="0.3575" stop-color="#FFA63B"/>
<stop offset="0.6011" stop-color="#FFB62A"/>
<stop offset="0.8778" stop-color="#FFD00F"/>
<stop offset="1" stop-color="#FFDD00"/>
</radialGradient>
<radialGradient id="paint5_radial_0_70" cx="0" cy="0" r="1" gradientUnits="userSpaceOnUse" gradientTransform="translate(11.904 17.8612) scale(11.3847 29.3156)">
<stop stop-color="#FFA141"/>
<stop offset="0.1746" stop-color="#FFA141"/>
<stop offset="0.3575" stop-color="#FFA63B"/>
<stop offset="0.6011" stop-color="#FFB62A"/>
<stop offset="0.8778" stop-color="#FFD00F"/>
<stop offset="1" stop-color="#FFDD00"/>
</radialGradient>
<radialGradient id="paint6_radial_0_70" cx="0" cy="0" r="1" gradientUnits="userSpaceOnUse" gradientTransform="translate(11.904 17.8614) scale(11.3847 29.3156)">
<stop stop-color="#FFA141"/>
<stop offset="0.1746" stop-color="#FFA141"/>
<stop offset="0.3575" stop-color="#FFA63B"/>
<stop offset="0.6011" stop-color="#FFB62A"/>
<stop offset="0.8778" stop-color="#FFD00F"/>
<stop offset="1" stop-color="#FFDD00"/>
</radialGradient>
<radialGradient id="paint7_radial_0_70" cx="0" cy="0" r="1" gradientUnits="userSpaceOnUse" gradientTransform="translate(11.8841 17.8618) scale(10.8155 10.7831)">
<stop stop-color="#FFA141"/>
<stop offset="0.1746" stop-color="#FFA141"/>
<stop offset="0.3575" stop-color="#FFA63B"/>
<stop offset="0.6011" stop-color="#FFB62A"/>
<stop offset="0.8778" stop-color="#FFD00F"/>
<stop offset="1" stop-color="#FFDD00"/>
</radialGradient>
<radialGradient id="paint8_radial_0_70" cx="0" cy="0" r="1" gradientUnits="userSpaceOnUse" gradientTransform="translate(11.8843 17.8616) scale(10.8155 10.9126)">
<stop stop-color="#FFA141"/>
<stop offset="0.1746" stop-color="#FFA141"/>
<stop offset="0.3575" stop-color="#FFA63B"/>
<stop offset="0.6011" stop-color="#FFB62A"/>
<stop offset="0.8778" stop-color="#FFD00F"/>
<stop offset="1" stop-color="#FFDD00"/>
</radialGradient>
<radialGradient id="paint9_radial_0_70" cx="0" cy="0" r="1" gradientUnits="userSpaceOnUse" gradientTransform="translate(15.6183 17.1113) scale(10.5739)">
<stop stop-color="#E6E7E8"/>
<stop offset="0.4218" stop-color="#E6E7E8"/>
<stop offset="1" stop-color="white"/>
</radialGradient>
<radialGradient id="paint10_radial_0_70" cx="0" cy="0" r="1" gradientUnits="userSpaceOnUse" gradientTransform="translate(16.3631 17.9983) rotate(-90) scale(9.99834 4.5447)">
<stop stop-color="#E6E7E8"/>
<stop offset="0.4218" stop-color="#E6E7E8"/>
<stop offset="1" stop-color="white"/>
</radialGradient>
<radialGradient id="paint11_radial_0_70" cx="0" cy="0" r="1" gradientUnits="userSpaceOnUse" gradientTransform="translate(19.6452 18.003) scale(7.04925)">
<stop stop-color="#E6E7E8"/>
<stop offset="0.4218" stop-color="#E6E7E8"/>
<stop offset="1" stop-color="white"/>
</radialGradient>
<radialGradient id="paint12_radial_0_70" cx="0" cy="0" r="1" gradientUnits="userSpaceOnUse" gradientTransform="translate(13.0568 18.0073) scale(8.81158)">
<stop stop-color="#E6E7E8"/>
<stop offset="0.4218" stop-color="#E6E7E8"/>
<stop offset="1" stop-color="white"/>
</radialGradient>
</defs>
</svg>
